<svg width="80" height="80" viewBox="0 0 80 80" fill="none" xmlns="http://www.w3.org/2000/svg">
<path d="M48.8686 15.4178C51.9439 12.9337 52.6402 10.2781 52.6825 8.48769C52.786 4.13204 49.3464 0.944632 48.9538 0.595736C47.9813 -0.269239 46.4916 -0.182054 45.6264 0.790574C44.7614 1.7632 44.8486 3.25269 45.8212 4.11782C45.8433 4.13751 48.0223 6.1762 47.9702 8.37598C47.9423 9.54797 47.2673 10.652 45.9066 11.7512C42.8312 14.2353 42.135 16.8909 42.0926 18.6813C41.989 23.037 45.4287 26.2244 45.8212 26.5734C46.2714 26.9737 46.8333 27.1709 47.3928 27.1709C48.0422 27.1709 48.6886 26.9053 49.1533 26.3826C50.0183 25.41 49.9358 23.9246 48.9631 23.0596C48.3445 22.4971 46.7511 20.6311 46.8053 18.7754C46.8395 17.6099 47.5144 16.5115 48.8686 15.4178Z" fill="#2352DE"/>
<path d="M33.9147 15.4178C36.99 12.9337 37.6862 10.2781 37.7285 8.48769C37.832 4.13204 34.3925 0.944632 33.9998 0.595736C33.0275 -0.269239 31.5376 -0.182054 30.6725 0.790574C29.8075 1.7632 29.8947 3.25269 30.8673 4.11782C30.8894 4.13751 33.0684 6.1762 33.0162 8.37598C32.9884 9.54797 32.3134 10.652 30.9526 11.7512C27.8773 14.2353 27.1811 16.8909 27.1388 18.6813C27.0353 23.037 30.4748 26.2244 30.8673 26.5734C31.3175 26.9737 31.8794 27.1709 32.4389 27.1709C33.0883 27.1709 33.7347 26.9053 34.1993 26.3826C35.0643 25.41 34.9818 23.9246 34.0092 23.0596C33.3906 22.4971 31.7972 20.6311 31.8514 18.7754C31.8856 17.6099 32.5605 16.5115 33.9147 15.4178Z" fill="#2352DE"/>
<path d="M67.6553 38.4599H64.8659V36.7315C64.8659 35.4299 63.8107 34.3745 62.509 34.3745H2.35687C1.05531 34.3745 0 35.4297 0 36.7315V49.1706C0 60.162 6.08359 69.8268 15.217 75.2866H2.35828C1.05672 75.2866 0.00140626 76.3418 0.00140626 77.6436C0.00140626 78.9453 1.05641 80.0005 2.35828 80.0005H62.5092C63.8107 80.0005 64.8661 78.9453 64.8661 77.6436C64.8661 76.3418 63.8109 75.2866 62.5092 75.2866H49.649C54.8428 72.1818 59.0501 67.7178 61.7132 62.4223H67.6554C74.2617 62.4223 79.6364 57.0475 79.6364 50.4411C79.6364 43.8346 74.2615 38.4599 67.6553 38.4599ZM60.1523 49.1706C60.1521 63.571 47.7173 75.2866 32.4329 75.2866C17.1486 75.2866 4.71375 63.571 4.71375 49.1706V39.0884H60.1521V49.1706H60.1523ZM67.6553 57.7086H63.5996C64.4232 54.9962 64.8659 52.1316 64.8659 49.1706V43.1735H67.6553C71.6625 43.1735 74.9226 46.4338 74.9226 50.4411C74.9226 54.4484 71.6625 57.7086 67.6553 57.7086Z" fill="#2352DE"/>
<path d="M18.9609 15.418C22.0362 12.9339 22.7325 10.2783 22.7748 8.48782C22.8783 4.1321 19.4387 0.944646 19.046 0.595745C18.0735 -0.269243 16.5838 -0.182057 15.7187 0.790586C14.8537 1.76307 14.9409 3.25274 15.9135 4.11788C15.9355 4.13757 18.1146 6.17629 18.0624 8.3761C18.0346 9.54812 17.3596 10.6522 15.9988 11.7514C12.9235 14.2356 12.2272 16.8911 12.1849 18.6816C12.0816 23.0371 15.5212 26.2246 15.9137 26.5737C16.3627 26.973 16.922 27.1694 17.4792 27.1694C18.1287 27.1694 18.7754 26.9024 19.2412 26.3788C20.1062 25.4062 20.019 23.9167 19.0463 23.0515C19.0243 23.0318 16.8452 20.9931 16.8974 18.7933C16.9249 17.6213 17.5999 16.5171 18.9609 15.418Z" fill="#2352DE"/>
</svg>
