<svg width="92" height="80" viewBox="0 0 92 80" fill="none" xmlns="http://www.w3.org/2000/svg">
<path d="M45.9193 31.2114C54.5241 31.2114 61.5246 24.2107 61.5246 15.6057C61.5246 7.00069 54.5241 0 45.9193 0C37.3145 0 30.314 7.00069 30.314 15.6057C30.314 24.2107 37.3145 31.2114 45.9193 31.2114ZM45.9193 5.38128C51.5569 5.38128 56.1435 9.96793 56.1435 15.6057C56.1435 21.2435 51.5569 25.8301 45.9193 25.8301C40.2816 25.8301 35.6951 21.2435 35.6951 15.6057C35.6951 9.96793 40.2816 5.38128 45.9193 5.38128Z" fill="#2352DE"/>
<path d="M77.4887 31.2104C82.9285 31.2104 87.3542 26.7848 87.3542 21.345C87.3542 15.9051 82.9285 11.4795 77.4887 11.4795C72.0489 11.4795 67.6233 15.9051 67.6233 21.345C67.6233 26.7848 72.0489 31.2104 77.4887 31.2104ZM77.4887 16.8607C79.9614 16.8607 81.973 18.8723 81.973 21.345C81.973 23.8176 79.9614 25.8293 77.4887 25.8293C75.0161 25.8293 73.0044 23.8176 73.0044 21.345C73.0044 18.8723 75.0161 16.8607 77.4887 16.8607Z" fill="#2352DE"/>
<path d="M79.6591 37.3101H75.4977C70.5938 37.3101 66.3606 40.2072 64.4317 44.3685C60.4602 40.0332 54.7556 37.3101 48.4267 37.3101H43.412C37.083 37.3101 31.3784 40.0332 27.407 44.3685C25.4778 40.2072 21.2446 37.3101 16.3408 37.3101H12.1794C5.46367 37.3101 0 42.7406 0 49.4156V69.0043C0 71.9021 2.36663 74.2598 5.27569 74.2598H21.7289C22.0048 77.4704 24.7047 79.9995 27.986 79.9995H63.8527C67.1337 79.9995 69.8336 77.4704 70.1097 74.2598H86.375C89.3877 74.2598 91.8386 71.8186 91.8386 68.8177V49.4156C91.8384 42.7406 86.3748 37.3101 79.6591 37.3101ZM5.38116 49.4156C5.38116 45.7077 8.43084 42.6911 12.1794 42.6911H16.3408C20.0893 42.6911 23.139 45.7077 23.139 49.4156V51.2578C21.3297 55.9688 21.704 58.792 21.704 68.8787H5.38116V49.4156ZM64.7533 73.7179C64.7533 74.2146 64.3493 74.6185 63.8527 74.6185H27.9858C27.4891 74.6185 27.0852 74.2144 27.0852 73.7179V59.0175C27.0852 50.015 34.4093 42.6911 43.4118 42.6911H48.4265C57.4292 42.6911 64.7533 50.015 64.7533 59.0173V73.7179ZM86.4573 68.8177C86.4573 68.9105 87.4603 68.8787 70.1344 68.8787C70.1344 58.7174 70.5059 55.961 68.6995 51.2578V49.4156C68.6995 45.7077 71.7491 42.6911 75.4977 42.6911H79.6591C83.4076 42.6911 86.4573 45.7077 86.4573 49.4156V68.8177Z" fill="#2352DE"/>
<path d="M14.3498 31.2104C19.7896 31.2104 24.2152 26.7848 24.2152 21.345C24.2152 15.9051 19.7896 11.4795 14.3498 11.4795C8.91 11.4795 4.48438 15.9051 4.48438 21.345C4.48438 26.7848 8.91 31.2104 14.3498 31.2104ZM14.3498 16.8607C16.8224 16.8607 18.8341 18.8723 18.8341 21.345C18.8341 23.8176 16.8224 25.8293 14.3498 25.8293C11.8772 25.8293 9.86551 23.8176 9.86551 21.345C9.86551 18.8723 11.8772 16.8607 14.3498 16.8607Z" fill="#2352DE"/>
</svg>
