<svg width="81" height="80" viewBox="0 0 81 80" fill="none" xmlns="http://www.w3.org/2000/svg">
<path d="M71.6863 0H27.7647C23.0075 0 19.1373 3.87027 19.1373 8.62745V28.2353H8.62745C3.87027 28.2353 0 32.1056 0 36.8627V61.9608C0 66.718 3.87027 70.5882 8.62745 70.5882H23.0544L28.6304 78.9522C29.0668 79.6068 29.8016 80 30.5882 80C31.3749 80 32.1096 79.6068 32.546 78.9522L38.122 70.5882H52.549C57.3062 70.5882 61.1765 66.718 61.1765 61.9608V42.3529H71.6863C76.4434 42.3529 80.3137 38.4827 80.3137 33.7255V8.62745C80.3137 3.87027 76.4434 0 71.6863 0ZM56.4706 61.9608C56.4706 64.1231 54.7114 65.8824 52.549 65.8824H36.8627C36.0761 65.8824 35.3413 66.2756 34.9049 66.9302L30.5882 73.4052L26.2715 66.9302C25.8351 66.2756 25.1004 65.8824 24.3137 65.8824H8.62745C6.4651 65.8824 4.70588 64.1231 4.70588 61.9608V36.8627C4.70588 34.7004 6.4651 32.9412 8.62745 32.9412H19.1373V33.7255C19.1373 35.1373 19.4803 36.4695 20.0839 37.6471H11.7647C10.4653 37.6471 9.41176 38.7006 9.41176 40C9.41176 41.2995 10.4653 42.3529 11.7647 42.3529H42.1918L45.3291 47.0588H11.7647C10.4653 47.0588 9.41176 48.1123 9.41176 49.4118C9.41176 50.7112 10.4653 51.7647 11.7647 51.7647H49.7255C50.5123 51.7647 51.2469 51.3715 51.6831 50.7169L56.4706 43.5358V61.9608ZM75.6078 33.7255C75.6078 35.8878 73.8486 37.6471 71.6863 37.6471H56C55.2132 37.6471 54.4786 38.0403 54.0423 38.6949L49.7255 45.1699L45.4086 38.6949C44.9724 38.0403 44.2376 37.6471 43.451 37.6471H27.7647C25.6024 37.6471 23.8431 35.8878 23.8431 33.7255V8.62745C23.8431 6.4651 25.6024 4.70588 27.7647 4.70588H71.6863C73.8486 4.70588 75.6078 6.4651 75.6078 8.62745V33.7255Z" fill="#2352DE"/>
<path d="M49.4117 56.4707H11.7646C10.4651 56.4707 9.41162 57.5241 9.41162 58.8235C9.41162 60.1229 10.4651 61.1763 11.7646 61.1763H49.4117C50.7112 61.1763 51.7646 60.1229 51.7646 58.8235C51.7646 57.5241 50.7112 56.4707 49.4117 56.4707Z" fill="#2352DE"/>
<path d="M61.0442 16.3828L54.6811 15.4582L51.8355 9.69233C51.4391 8.88923 50.6212 8.38086 49.7255 8.38086C48.8298 8.38086 48.012 8.88923 47.6156 9.69233L44.7699 15.4582L38.4068 16.3828C37.5205 16.5115 36.7841 17.1323 36.5074 17.9842C36.2305 18.8359 36.4614 19.7709 37.1027 20.396L41.707 24.8838L40.62 31.2209C40.4686 32.1037 40.8316 32.9957 41.5561 33.5223C42.2805 34.0484 43.241 34.118 44.0341 33.7014L49.7255 30.7092L55.4168 33.7014C55.7611 33.8823 56.137 33.9717 56.5115 33.9717C56.9994 33.9717 57.485 33.8202 57.8948 33.5224C58.6193 32.996 58.9823 32.1038 58.8309 31.2211L57.7439 24.8839L62.3482 20.3961C62.9896 19.7711 63.2205 18.8361 62.9437 17.9843C62.667 17.1325 61.9307 16.5116 61.0442 16.3828ZM53.5734 22.3777C53.0187 22.9182 52.7657 23.697 52.8967 24.4603L53.3869 27.3177L50.8206 25.9684C50.4777 25.7884 50.1017 25.6982 49.7257 25.6982C49.3497 25.6982 48.9735 25.7882 48.6308 25.9684L46.0645 27.3177L46.5547 24.4603C46.6857 23.697 46.4327 22.9182 45.878 22.3777L43.8019 20.3541L46.6713 19.9372C47.4377 19.8258 48.1001 19.3446 48.4429 18.6502L49.726 16.0503L51.0091 18.6502C51.3519 19.3446 52.0143 19.8258 52.7807 19.9372L55.6501 20.3541L53.5734 22.3777Z" fill="#2352DE"/>
</svg>
